<?xml version="1.0" encoding="utf-8"?>
<!-- Generator: Adobe Illustrator 24.0.2, SVG Export Plug-In . SVG Version: 6.00 Build 0)  -->
<svg version="1.1" id="Layer_1" xmlns="http://www.w3.org/2000/svg" xmlns:xlink="http://www.w3.org/1999/xlink" x="0px" y="0px"
	 viewBox="0 0 1000 1000" style="enable-background:new 0 0 1000 1000;" xml:space="preserve">
<g>
	<g transform="translate(0.000000,512.000000) scale(0.100000,-0.100000)">
		<path d="M4884.4,5001.5c-245-42.1-112.9,80.4-2511.6-2314.4C1153.4,1469.6,142.6,451.2,127.3,422.5
			c-45.9-88.1-34.5-164.6,38.3-237.4l65.1-65.1h547.5h547.5v-2385.2v-2385.3l65.1-65.1l65.1-65.1h2932.7h2932.7l65.1,65.1
			c46,45.9,65.1,82.3,65.1,124.4c0,74.6-44,162.7-90,185.7c-19.1,9.6-1292.2,21.1-2829.4,26.8l-2794.9,9.6l-9.6,2396.7L1718,424.3
			l-44,44c-42.1,42.1-57.4,44-453.7,53.6l-411.6,9.6l2034.9,2034.9l2033,2033H5001h122.5l805.9-802.1
			c867.2-865.3,859.5-859.5,993.5-796.4c124.4,59.3,126.3,72.7,126.3,888.2v729.4l608.8-3.8l606.8-5.7l9.6-1579.3
			c5.7-869.1,11.5-1583.1,15.3-1588.9c1.9-3.8,208.7-212.5,457.5-463.3l454-455.5h-407.8h-407.7l-55.5-55.5
			c-53.6-53.6-55.5-63.2-55.5-237.4c0-166.6,3.8-187.6,47.9-239.3c97.6-116.8,271.8-88.1,331.2,53.6l32.5,76.6h539.8H9764l59.4,49.8
			c61.2,51.7,91.9,145.5,68.9,222.1c-7.7,23-283.3,315.9-614.5,647l-601.1,603l-3.8,1632.9l-5.7,1634.8l-63.2,55.5l-61.3,55.5H7666
			c-660.4,0-886.3-5.7-922.7-24.9c-26.8-13.4-63.2-53.6-80.4-90c-30.6-59.3-34.5-132.1-34.5-641.3V3692l-597.3,595.4
			c-359.9,356.1-629.8,608.8-675.8,631.7C5198.3,4997.7,5031.8,5026.4,4884.4,5001.5z"/>
		<path d="M3479.3,97c-21.1-11.5-53.6-38.3-70.8-61.3C3377.8-0.6,3374-111.6,3374-1511v-1508.5l55.5-61.3l55.5-63.2l1357.3-5.7
			c744.7-3.8,1382.1,0,1414.7,5.7c74.7,13.4,155.1,90,170.4,162.7c17.2,78.5-36.4,181.9-114.9,218.2
			c-55.5,26.8-212.5,30.6-1299.8,30.6H3776v1225.2V-282h1225.2h1225.2v-229.7c0-254.6,19.1-321.6,105.3-359.9
			c90-40.2,180-28.7,241.2,32.6l55.5,55.5v377.1c0,407.8-11.5,461.3-105.3,503.5C6454.1,127.7,3536.7,129.6,3479.3,97z"/>
		<path d="M8060.2-301.2c-488.1-76.6-884.4-321.6-1142.8-706.4c-222.1-329.3-321.6-742.8-262.2-1091.2
			c88-509.2,551.3-1366.8,1273-2362.2c193.3-266.1,248.9-319.7,331.2-319.7c95.7,0,153.1,51.7,342.6,312
			C9329.4-3465.6,9796.5-2602.2,9884.6-2093c44,254.6-7.6,570.5-137.8,849.9c-260.4,564.7-779.1,915-1397.4,949.5
			C8249.8-289.7,8119.6-291.6,8060.2-301.2z M8552.2-731.9c164.6-42.1,403.9-164.6,522.6-268c291-258.4,467.1-710.2,405.8-1045.2
			c-67-361.8-384.8-976.3-922.7-1772.7c-137.8-202.9-260.3-377.1-273.7-388.6c-19.1-15.3-53.6,21.1-147.4,157
			c-532.2,765.7-886.3,1384-1022.2,1786c-67,199.1-82.3,446-38.3,622.2c141.7,559,614.5,934.2,1179.2,936.1
			C8358.9-703.2,8489.1-716.6,8552.2-731.9z"/>
		<path d="M8075.6-1124.3c-222.1-57.4-447.9-248.8-553.2-472.8c-55.5-118.7-61.3-147.4-61.3-312c0-126.3,11.5-212.5,34.5-281.4
			c53.6-151.2,187.6-319.7,323.5-409.6c166.6-105.3,289.1-137.8,495.8-128.3c145.5,7.6,185.7,17.2,310.1,78.5
			c273.7,135.9,436.5,381,449.9,685.3c9.6,202.9-23,327.4-128.3,490.1c-86.1,134-239.3,258.4-388.6,315.9
			C8441.2-1114.7,8190.4-1097.5,8075.6-1124.3z M8479.5-1576.1c222.1-128.3,258.4-446.1,74.6-629.8
			c-132.1-132.1-300.5-158.9-469-74.7c-248.9,124.4-300.5,451.8-101.5,645.1C8119.6-1501.4,8312.9-1480.4,8479.5-1576.1z"/>
	</g>
</g>
</svg>
