<?xml version="1.0" encoding="utf-8"?>
<!-- Generator: Adobe Illustrator 23.0.3, SVG Export Plug-In . SVG Version: 6.00 Build 0)  -->
<svg version="1.1" id="Layer_1" xmlns="http://www.w3.org/2000/svg" xmlns:xlink="http://www.w3.org/1999/xlink" x="0px" y="0px"
	 viewBox="0 0 24 24" style="enable-background:new 0 0 24 24;" xml:space="preserve">
<style type="text/css">
	.st0{fill:#35FA00;}
</style>
<title>Adobe Dreamweaver icon</title>
<path class="st0" d="M0,0.3v23.4h24V0.3H0z M1,1.3h22v21.4H1V1.3z M3.1,5.8c0-0.1,0-0.1,0.1-0.1c0.4,0,1.5-0.1,2.6-0.1
	c3.3,0,5,2.2,5,5.3c0,4.4-2.9,5.7-5.1,5.7c-0.8,0-2.1,0-2.5,0c-0.1,0-0.1,0-0.1-0.1L3.1,5.8L3.1,5.8z M4.9,15.1c0.3,0,0.5,0,0.8,0
	C7.6,15.1,9,13.8,9,11c0-2.7-1.4-3.8-3.2-3.8c-0.3,0-0.6,0-0.9,0L4.9,15.1L4.9,15.1z M17.6,16.7c-0.1,0-0.1,0-0.2-0.1
	c-0.5-2.8-0.9-4.7-1.1-6.1h0c-0.2,1.2-0.6,3.3-1.3,6.1c0,0.1-0.1,0.1-0.1,0.1h-1.6c-0.1,0-0.1,0-0.2-0.1l-1.8-7.9
	c0-0.1,0-0.1,0.1-0.1h1.6c0.1,0,0.1,0,0.1,0.1c0.6,3.5,0.9,5.4,1,6.1h0.1c0.1-0.9,0.5-2.6,1.2-6.1c0-0.1,0-0.1,0.1-0.1h1.7
	c0.1,0,0.1,0,0.1,0.1c0.6,3.3,1,5.3,1.1,6.1h0c0.2-1.1,0.4-2.5,1.1-6.1c0-0.1,0-0.1,0.1-0.1h1.5c0.1,0,0.1,0,0.1,0.1l-2,7.9
	c0,0.1,0,0.1-0.1,0.1L17.6,16.7L17.6,16.7z"/>
</svg>
