<?xml version="1.0" encoding="utf-8"?>
<!-- Generator: Adobe Illustrator 23.0.3, SVG Export Plug-In . SVG Version: 6.00 Build 0)  -->
<svg version="1.1" id="Layer_1" xmlns="http://www.w3.org/2000/svg" xmlns:xlink="http://www.w3.org/1999/xlink" x="0px" y="0px"
	 viewBox="0 0 24 24" style="enable-background:new 0 0 24 24;" xml:space="preserve">
<style type="text/css">
	.st0{fill:#DE4F4F;}
</style>
<title>Meteor icon</title>
<path class="st0" d="M0,0.2l21.9,20.5c0,0,0.4,0.6-0.1,1.2c-0.5,0.6-1.2,0.1-1.2,0.1L0,0.2z M6.5,2.3l17,15.6c0,0,0.4,0.6-0.1,1.2
	c-0.5,0.6-1.2,0.1-1.2,0.1L6.5,2.3z M1.9,6.7l17,15.6c0,0,0.4,0.6-0.1,1.2s-1.2,0.1-1.2,0.1L1.9,6.7z M12,4.1L23.9,15
	c0,0,0.3,0.4-0.1,0.8s-0.9,0.1-0.9,0.1L12,4.1z M3.4,11.8l11.9,10.9c0,0,0.3,0.4-0.1,0.8c-0.4,0.4-0.9,0.1-0.9,0.1
	S3.4,11.8,3.4,11.8z M17.6,6.6l5.4,5c0,0,0.1,0.2,0,0.4c-0.2,0.2-0.4,0-0.4,0L17.6,6.6C17.6,6.6,17.6,6.6,17.6,6.6z M6.2,17.2l5.4,5
	c0,0,0.1,0.2,0,0.4s-0.4,0-0.4,0S6.2,17.2,6.2,17.2z"/>
</svg>
