<svg xmlns="http://www.w3.org/2000/svg" xmlns:xlink="http://www.w3.org/1999/xlink" width="400" zoomAndPan="magnify" viewBox="0 0 300 299.999988" height="400" preserveAspectRatio="xMidYMid meet" version="1.2"><defs><clipPath id="9f758664ed"><path d="M 22.570312 22.570312 L 277.429688 22.570312 L 277.429688 277.429688 L 22.570312 277.429688 Z M 22.570312 22.570312 "/></clipPath><clipPath id="79df89ea48"><path d="M 34.171875 34.171875 L 265.828125 34.171875 L 265.828125 265.828125 L 34.171875 265.828125 Z M 34.171875 34.171875 "/></clipPath><clipPath id="78b644306c"><path d="M 48.792969 34.171875 L 251.292969 34.171875 L 251.292969 265.921875 L 48.792969 265.921875 Z M 48.792969 34.171875 "/></clipPath></defs><g id="64170a80dd"><g clip-rule="nonzero" clip-path="url(#9f758664ed)"><path style="fill:none;stroke-width:10;stroke-linecap:butt;stroke-linejoin:miter;stroke:#000000;stroke-opacity:1;stroke-miterlimit:4;" d="M 0.00228206 0.00229006 L 339.814832 0.00229006 L 339.814832 339.81484 L 0.00228206 339.81484 Z M 0.00228206 0.00229006 " transform="matrix(0.75,0,0,0.75,22.568601,22.568595)"/></g><g clip-rule="nonzero" clip-path="url(#79df89ea48)"><path style=" stroke:none;fill-rule:nonzero;fill:#000000;fill-opacity:1;" d="M 34.171875 34.171875 L 265.828125 34.171875 L 265.828125 265.828125 L 34.171875 265.828125 Z M 34.171875 34.171875 "/></g><g clip-rule="nonzero" clip-path="url(#78b644306c)"><path style=" stroke:none;fill-rule:nonzero;fill:#ffffff;fill-opacity:1;" d="M 141.929688 227.5 C 142.351562 224.417969 142.558594 221.328125 142.546875 218.21875 C 142.558594 214.007812 141.992188 209.878906 140.851562 205.824219 C 139.707031 201.773438 138.03125 197.957031 135.820312 194.375 C 135.820312 208.921875 136.160156 222.632812 119.410156 227.5625 Z M 96.457031 230.730469 C 101.757812 230.730469 104.539062 222.972656 104.539062 218.558594 L 104.363281 174.621094 C 87.582031 174.621094 68.636719 186.03125 68.796875 204.574219 C 68.828125 221.402344 80.128906 230.84375 96.457031 230.78125 Z M 104.378906 172.632812 C 104.378906 166.164062 110.085938 162.238281 116.03125 162.203125 L 104.328125 162.203125 C 104.328125 153.605469 101.097656 141.027344 89.910156 143.5 C 90.441406 142.894531 91.035156 142.359375 91.691406 141.890625 C 92.34375 141.421875 93.042969 141.035156 93.789062 140.726562 C 94.53125 140.417969 95.300781 140.195312 96.097656 140.066406 C 96.890625 139.933594 97.691406 139.894531 98.492188 139.945312 C 102.46875 139.945312 106.898438 141.011719 109.550781 144.308594 C 109.621094 143.675781 109.746094 143.054688 109.929688 142.445312 C 110.113281 141.835938 110.347656 141.246094 110.640625 140.679688 C 110.929688 140.113281 111.269531 139.578125 111.65625 139.074219 C 112.046875 138.566406 112.476562 138.101562 112.953125 137.675781 C 113.425781 137.25 113.933594 136.871094 114.476562 136.539062 C 115.019531 136.207031 115.589844 135.925781 116.183594 135.699219 C 116.777344 135.46875 117.386719 135.296875 118.011719 135.179688 C 118.640625 135.0625 119.269531 135.003906 119.90625 135 C 120.542969 135 121.175781 135.054688 121.800781 135.171875 C 122.429688 135.285156 123.039062 135.453125 123.636719 135.679688 C 124.230469 135.90625 124.800781 136.183594 125.34375 136.515625 C 125.890625 136.84375 126.398438 137.222656 126.875 137.644531 C 127.351562 138.066406 127.785156 138.53125 128.175781 139.035156 C 128.566406 139.535156 128.910156 140.070312 129.203125 140.636719 C 129.496094 141.203125 129.734375 141.789062 129.921875 142.398438 C 130.105469 143.007812 130.234375 143.628906 130.308594 144.261719 C 130.917969 143.511719 131.605469 142.839844 132.371094 142.25 C 133.136719 141.65625 133.957031 141.160156 134.835938 140.753906 C 135.714844 140.347656 136.625 140.046875 137.574219 139.851562 C 138.519531 139.65625 139.476562 139.566406 140.445312 139.589844 C 142.207031 139.5625 143.914062 139.871094 145.558594 140.511719 C 147.203125 141.152344 148.667969 142.078125 149.949219 143.289062 C 149.285156 143.289062 148.851562 143.082031 148.1875 143.082031 C 138.699219 143.082031 135.660156 154.394531 135.691406 162.125 L 135.804688 190.816406 C 138.792969 195 141.070312 199.535156 142.636719 204.429688 C 144.203125 209.324219 144.988281 214.339844 144.984375 219.480469 C 145 222.074219 144.792969 224.648438 144.355469 227.207031 C 182.75 222.859375 184.125 182.234375 184.203125 152.199219 C 160.132812 148.335938 140.394531 128.984375 135.433594 105.171875 L 135.433594 109.148438 C 135.433594 117.523438 136.175781 131.441406 145.472656 134.933594 C 144.296875 135.121094 143.117188 135.195312 141.929688 135.160156 C 133.558594 135.160156 124.699219 131.925781 120.042969 124.667969 C 118.898438 126.339844 117.574219 127.851562 116.066406 129.210938 C 114.5625 130.566406 112.921875 131.730469 111.140625 132.695312 C 109.359375 133.664062 107.492188 134.40625 105.535156 134.929688 C 103.578125 135.453125 101.585938 135.738281 99.558594 135.789062 C 97.835938 135.789062 96.136719 135.574219 94.46875 135.144531 C 103.503906 131.132812 104.167969 117.359375 104.070312 108.839844 C 104.070312 97.136719 113.460938 85.609375 125.601562 85.5625 C 111.472656 85.5625 81.246094 86.628906 81.148438 66.324219 C 81.132812 55.558594 88.824219 47.363281 99.867188 47.265625 C 101.207031 47.28125 102.53125 47.433594 103.839844 47.726562 C 105.148438 48.019531 106.414062 48.445312 107.632812 49 C 108.851562 49.558594 110 50.234375 111.078125 51.03125 C 112.15625 51.828125 113.140625 52.730469 114.027344 53.730469 L 109.839844 56.835938 C 109.371094 56.234375 108.859375 55.675781 108.304688 55.15625 C 107.746094 54.632812 107.152344 54.160156 106.519531 53.734375 C 105.890625 53.308594 105.226562 52.933594 104.539062 52.609375 C 103.847656 52.285156 103.136719 52.019531 102.402344 51.808594 C 101.671875 51.597656 100.925781 51.445312 100.171875 51.351562 C 99.414062 51.257812 98.65625 51.222656 97.894531 51.246094 C 97.132812 51.273438 96.378906 51.355469 95.628906 51.5 C 94.882812 51.644531 94.148438 51.84375 93.433594 52.105469 C 92.714844 52.363281 92.023438 52.675781 91.355469 53.042969 C 90.6875 53.410156 90.054688 53.828125 89.453125 54.296875 C 88.847656 54.761719 88.289062 55.273438 87.765625 55.832031 C 87.246094 56.386719 86.769531 56.980469 86.339844 57.609375 C 85.914062 58.238281 85.535156 58.898438 85.210938 59.589844 C 84.886719 60.277344 84.617188 60.988281 84.40625 61.71875 C 84.191406 62.453125 84.035156 63.195312 83.941406 63.953125 C 83.84375 64.707031 83.808594 65.464844 83.832031 66.226562 C 83.832031 78.367188 95.824219 81.40625 105.542969 82.683594 C 104.703125 82.398438 103.890625 82.046875 103.109375 81.632812 C 102.324219 81.21875 101.582031 80.746094 100.871094 80.210938 C 100.164062 79.675781 99.503906 79.089844 98.890625 78.453125 C 98.277344 77.816406 97.714844 77.132812 97.210938 76.402344 C 96.703125 75.675781 96.257812 74.914062 95.875 74.113281 C 95.488281 73.316406 95.171875 72.492188 94.917969 71.644531 C 94.664062 70.792969 94.480469 69.929688 94.363281 69.050781 C 94.246094 68.171875 94.203125 67.292969 94.226562 66.40625 C 94.226562 64.761719 94.441406 63.144531 94.871094 61.554688 C 97.136719 75.457031 107.09375 80.050781 120.105469 79.984375 L 152.132812 79.855469 C 191.414062 79.679688 214.953125 108.953125 215.777344 146.683594 C 237.339844 134.367188 248.769531 121.5 248.65625 95.761719 C 248.65625 82.960938 235.726562 73.957031 223.828125 74.003906 C 221.246094 74.011719 218.746094 74.464844 216.324219 75.363281 C 217.816406 73.773438 219.554688 72.539062 221.542969 71.648438 C 223.53125 70.761719 225.609375 70.289062 227.789062 70.238281 C 236.402344 70.238281 244.828125 77.238281 247.71875 85.15625 C 242.984375 60.375 221.046875 40.605469 195.421875 40.800781 C 190.695312 40.808594 186.066406 41.488281 181.535156 42.835938 L 179.921875 35.125 C 183.375 34.640625 186.84375 34.378906 190.332031 34.332031 C 225.652344 34.1875 250.871094 58.582031 251.066406 94.144531 C 251.195312 121.53125 239.121094 135.933594 215.761719 148.398438 C 216.019531 206.015625 204.203125 230.34375 142.835938 233.707031 C 136.09375 253.785156 116.050781 265.796875 95.292969 265.890625 C 73.871094 265.890625 58.371094 254.574219 48.800781 235.839844 L 55.636719 232.71875 C 62.78125 251.683594 75.84375 262.660156 96.601562 262.5625 C 112.492188 262.5625 127.914062 255.140625 136.464844 241.417969 C 134.429688 243.234375 132.144531 244.640625 129.605469 245.636719 C 127.066406 246.636719 124.433594 247.164062 121.707031 247.21875 C 120.738281 247.253906 119.78125 247.175781 118.828125 246.992188 C 117.878906 246.804688 116.960938 246.511719 116.078125 246.113281 C 115.195312 245.714844 114.371094 245.222656 113.601562 244.632812 C 112.832031 244.046875 112.140625 243.378906 111.523438 242.628906 C 114.492188 244.21875 117.660156 245.019531 121.027344 245.023438 C 121.996094 245.015625 122.957031 244.945312 123.910156 244.8125 C 124.867188 244.675781 125.8125 244.480469 126.742188 244.21875 C 127.671875 243.960938 128.582031 243.640625 129.46875 243.257812 C 130.355469 242.878906 131.214844 242.4375 132.042969 241.945312 C 132.871094 241.449219 133.664062 240.902344 134.421875 240.300781 C 135.175781 239.699219 135.890625 239.050781 136.558594 238.355469 C 137.230469 237.660156 137.851562 236.921875 138.421875 236.144531 C 138.992188 235.367188 139.511719 234.554688 139.976562 233.707031 L 97.136719 233.882812 C 79.257812 233.882812 66.855469 223.632812 66.777344 205.320312 C 66.679688 184.980469 85.609375 172.761719 104.378906 172.679688 Z M 184.203125 150.921875 C 184.074219 122.453125 182.8125 85.367188 145.066406 85.53125 C 138.601562 85.53125 137.144531 93.0625 137.179688 97.929688 C 137.273438 123.082031 160.117188 146.621094 184.203125 150.921875 Z M 184.203125 150.921875 "/></g></g></svg>