<?xml version="1.0" encoding="UTF-8"?><svg id="Layer_1" xmlns="http://www.w3.org/2000/svg" viewBox="0 0 299.33 291.01"><path d="M.05,254.25C.98,178.31,2.12,101.92,3.83,25.91c.19-8.62-.2-17.29-.03-25.91l294.71.75c1.16,61.64-.32,123.2-.04,184.91.01,2.32.81,4.36.82,6.68.17,32.88-.21,65.79-.03,98.66L.05,290.25c.11-11.99-.15-24.02,0-36ZM294.75,3.75L7.5,4.08c-.77.54-.64,1.46-.74,2.26-1.64,13.65-.4,31.02-.68,45.07-.88,43.2-.97,86.5-1.5,129.75-.38,30.82-2.05,61.31-.75,92.19.19,4.62-.2,9.3-.03,13.91h291.71c.17-6.62-.23-13.29-.03-19.91,2.3-78.42,2.62-158.57,0-236.94-.3-8.88-.01-17.8-.72-26.66Z"/><path d="M288,12v39.75c-3.28-1.28-5.8-4.03-9.01-5.61-4.13-2.03-13.08-3.52-15.74-5.25-.36-.23-.98-.96-.74-1.13,6.8-.04,15-4.66,15.74-12-5.05.4-9.3,4.82-14.49,2.31l-.77-1.02.27-4.29c-2.97-2.88-16.13,11.75-17.24,14.63-.8,2.07,5.07.39,6.33.33.88-.04,4.15-.52,4.15.78-7.79,1.57-14.9,5.22-21.24,9.89-3.39,2.5-11.88,9.65-14.33,12.67-.99,1.22-2.29,3.3-.03,3.71,3.38.61,3.47-3.01,5.63-5.61,10.96-13.21,28.53-21.2,44.45-11.5,11.02,6.72,18.02,17.1,11.41,29.86-4.5,8.67-17.03,13.44-23.52,4.75-6.21-8.3,4.2-15.34,10.03-10.03,1.53,1.39,1.57,5.06,2.97,4.51,5.1-4.42,1.83-12.44-4.53-13.44-15.08-2.38-20.62,10.5-12.64,22.39,7.27,10.83,24.35,7.2,32.56-.69v30l-3.75-7.12c-7.45-9.44-24.26-6.1-24.45,6.87-.07,4.82,2.34,11.17,7.2,13,3.73-19.14,22.6-4.36,12,9.37-4.77,6.19-13.83,8.63-20.99,5.63,1.21,1.82.29,4.28,1.11,6,1.34,2.83,7.3,3.52,8.33,11.22.57,4.23-3.46,9.68-2.03,11.57.77,1.01,6.64-.15,8.5,4.39,2.25,5.5-3.08,7.56-1.67,12.56,8.79-3.42,9.48,7.28,9,13.49,1.51,1.88,3.44-5.78,3.55-6.57,1.96-14.13-4.31-28.19-12.55-39.17.79-.77,3.54,2.31,4.13,2.98,14.28,16.32,13.95,49.31,5,68.02-5.02,10.51-13.11,17.03-21.14,24.98,9.88-2.73,16.66-13.76,21.87-21.99l5.11-11,.76,57.75h-117.73c-.06-1.17,1.47-.92,2.26-1.86,5.98-7.09-.43-15.91-4.58-10.59-2.15,2.75,2.76,9.73-3.72,7.63-5.62-1.83-2.54-8.85,1.17-11.68,12.98-9.91,31.38,1.04,44.75,3.99,12.27,2.71,29.77,3.91,39.61-5.12-.52-1.03-2.02.01-2.76.24-4,1.22-7.73,3.17-11.95,3.79-22.94,3.41-43.39-15.07-66.29-8.54-8.58,2.45-13.84,9.21-11.61,18.41.51,2.12,1.53,2.32,2.63,3.72-11.87.19-23.77-.21-35.65-.02-31.6.5-67.67,2.93-98.99.81-3.45-.23-6.66-1.32-10.09-1.53v-18c11.72-1.87,15.83-19.49,12.96-29.09-.26-.87-.61-3.17-1.7-3.16.57,9.15-1.38,22.02-11.25,25.49l.75-151.5,17.85,22.26c4.23,4.25,8.48,19.2-1.7,17.5-2.56-.43-7.34-8.3-6.22.92,1.84,15.05,18.05,13.76,19.97-2.14,1.43-11.84-3.98-18.61-12.55-25.58l2.14-6.2c-3.63-1.18-10.78-.85-11.22-5.71-.1-1.11.67-2.86.38-3.35-.45-.78-2.46-.95-3.44-2-1.7-1.83-2.24-6.42.4-4.7.71.46,5.2,3.7,5.41,3.96,1.67,2.02.22,5.81,1.7,6.94,1.61,1.23,6.72.64,9.05,2.95,3.45,3.43-1.39,5.31-.74,7.43,5.13,3.15,6.87,12.26,13.82,12.35,11.31.16,11.81-13.29,3.76-18.63-.16,6.04-3.28,8.96-8.63,4.89-7.42-5.64-7.25-19.64-16.53-26.22-3.72-2.64-10.09-3.52-12-8.24-2.12-5.24,1.47-4.52,1.61-5.37.26-1.63-1.78-2.99-2.16-4.59-2.15-9.2,6.45-26.78,12.22-33.97-.12,3.5-2.41,7.33-3.17,11.08-3.24,15.95,2.46,30.02,14.78,40.3,5.6,4.67,14.27,10.21,21.75,7.86-.59-1.15-3.29-2.13-4.51-2.6-9.83-3.85-13.83-3.72-20.86-12.89C8.67,42.35,46.8,6.52,84.03,15.01l-12.9,1.71c-9.46,1.48-17.84,7.14-23.84,14.4-.7.85-1.82,1.21-1.49,2.62l12.52-5.88,1.36.59,2.26,4.54c2.71.6,12.23-14.56,14.25,0,6.76-1.67,12.62-7.41,19.56-8.18,16.6-1.84,32.96,15.17,36.07,30.51,2.47,12.18-2.25,22.42-5.02,33.9,2.43,2.44,5.27-6.92,5.63-8.24,8.37-31.06-6.63-52.82-34.36-65.39l-13.26-4.36h65.24l-9.98,4.65c-6.35,3.9-12.08,11.55-11.77,19.35,2.28.18,2.51-3.88,3.61-5.76,5.57-9.5,15.74-18.8,27.43-13.66,5.33,2.34,10.6,9.5,8.13,15.48-1.31,3.17-5.73,6.22-9.07,3.83-.52-.83-.04-3.96.4-5s4.15-1.41-.11-3.22c-6.12-2.6-13.7,8.8-4.43,13.48,6.76,3.41,13.33.2,17.52-5.53,6.24-8.52-.43-13.92-6-19.86,5.52,1.24,10.07,5.34,11.07,11.04.68,3.89-1.02,6.42,2.47,9.53,7.37,6.56,23.05,1.72,22.45-9.33-4.86-.36-11.97-.57-16.28-2.85-3.24-1.71-6.9-6.4-10.97-7.78l-9.5-4.36c8.9-.59,17.71-.88,26.65-.79,19.01.18,37.91.17,56.93,0,3.35-.03,39.4-.52,39.4,1.53ZM230.27,48.75c2.36-1.46,4.6-6.13,5.06-8.8,3.42-19.82-27.34-19.94-25.34-1.32.97,9.04,14.46,3.95,11.26-3.38-1.21-.88-6.54,4.57-6.81-1.13-.24-5.07,7.66-6.84,11.5-5.49,7.27,2.56,5.01,14.13,4.33,20.12ZM99.78,229.13c-.85-5.12.62-12.26,0-17.62-8.24-2.86-16.16,1.67-18.84,9.66-5.23.34-9.67-4.3-10.34-9.35-2.07-15.7,16.23-20.01,28.43-19.06-1.41-32.58.99-65.24.03-97.91-.21-7.12-2.75-16.42-.82-23.26,3.27-11.55,21.17-10.9,30.79-11.59.49-2.88-1.04-10.68-4.12-11.26l-67.12-.74c.71,4.58,4.45,7.67,6.03,12.34,3,8.9,1.48,13.97,1.44,22.49-.21,38.51-.2,77.06,0,115.57.07,12.84,1.45,23.18-1.06,36.37-.96,5.04-2.59,10.06-5.65,14.22l56.65.79c41.4-1.91,81.88,3.2,112.85-29.64,28.34-30.05,32.58-81.53,15.62-118.41-17.44-37.93-67.6-56.07-107.13-52.24l.75,11.26c30.67,1.83,59.19,18.67,71.59,47.27,8.43,19.44,11.34,41.47,7.68,62.38-.45,2.59-2.95,8.98-2.78,10.69.14,1.43,2.91,4.72,3.55,6.98,1.71,5.99,1.19,13.98-3.93,18.16-1.81-2.62-2.38-6.34-5.92-7.45-19.05,30.12-51.89,43.65-87.1,41.25-7-.48-19.19-2.44-20.59-10.91ZM225.77,69c5.89-4.88,13-10.9,20.52-5.3,1.36-.23,2.93-4.06,2.6-5.42-4.24-11.51-25.43,7.97-23.12,10.72ZM165.77,78c-8.5-8.7-25.6-2.42-17.89,10.77,5.36,9.16,14.77,4.7,20.52,9.47,1.52,1.26,2.07,3.54,4.07,4.2,2.7.89,4.65-1.04,6.76-.08,1.97.89,2.49,4.16,3.79,5.26,1.17.98,3.13.75,3.8,1.63.88,1.15,1.88,6.03,2.18,7.76-2.38-.76-2.45-4.07-4.07-5.29-2.79-2.09-7.17.35-6.42-5.96-7.69,4.16-11.02-6.16-16.86-6.77-9.39-1-30.97,12.06-36.69,19.59-12.55,16.52-5.9,50.03,17.94,51.67,11.65.8,25.69-9.86,25.71-22.11.03-18.84-32.41-16.13-30.58,1.87,25.8-6,16.75,24.35-2.54,15.65-10.23-4.61-14.98-19-13.96-29.52,1.7-17.53,20.84-28.61,37.15-28.91,8.68-.16,12.64,6.22,19.34,9.9,3.51,1.93,9.9,3.2,12.1,5.9,1.7,2.09,1.82,6.53,5.65,5.97-2.62-5.62-3.3-12.63-5.42-18.2-5.97-15.69-31.53-17.54-34.66-26.08-2.44-6.68,4.76-9.57,10.08-6.72ZM153.77,96.01c-10.28-4.13-22.36-4.38-33.4-3.79-2.5.13-6.56.45-8.96.79-1.41.2-8.59,1.36-8.62,2.62.89,1.29,1.94,1.22,3.34,1.16,4.1-.17,10.7-2.69,15.77-3.03,10.16-.67,19.67,1.1,29.58,2.65.79.12,2.45,1,2.27-.4ZM123.77,97.51c-.72-.67-1.75-.1-2.44.95-2.09,3.18-3.71,6.65-5.95,9.78-2.52,3.53-11.02,12.86-12.22,15.53-.55,1.22-.44,2.46-.38,3.74,4.04-1.33,22.64-28.47,20.99-30ZM194.27,161.25c12.25-11.2,7.2-32.47,8.25-47.62.21-3.05,2.97-6.9.37-9.37-2.14.05-4.55,10.41-4.78,12.45-1.71,14.86,1.2,30.26-3.83,44.53ZM157.52,193.5c9.83-10.58,23.82-14.95,31.13-27.73,4.45-7.77,8.11-18.12,5.23-27.01s-16.54-16.69-25.86-15.39c2.92,2.91,6.36,3.31,9.38,6.36,2.78,2.81,8.95,12.41,9.32,16.23.68,6.92-5.58,5.53-6.59,9.08-1.22,4.27,4.73,7.96.64,12.6-5.05,5.74-8.04-.47-9.4-.37-3.72,4.06-5.14,15.18-11.91,14.95-1.78-.06-4.32-2.18-4.95-1.89-2.4,1.08-7.68,10.21-11.23,12.82-11.85,8.7-26.94-3.96-39.76-1.52,3.77,2.28,8.32,1.86,12.74,3.01,14.58,3.79,21.24,9.59,37.26,3.5,11.21-4.26,20.67-15.33,32.95-16.54,5.05-.5,12.43-.53,15.28,4.4-26.94-9.32-42.5,24.01-69.74,16.51,8.87,8.69,23.22,8.24,34.25,3.88,16.63-6.57,30.27-23.19,48.22-6.14,1.77-20.37-13.03-30.55-31.76-22.39-9.12,3.98-15.66,12.59-25.23,15.64ZM51.8,177.75c9.87-10.37,6.2-26.77.37-38.26,1.65,12.79,2.9,25.56-.37,38.26ZM61.16,148.52c-2.17,1.47-2.89,4.78-.75,6.72,2.17-1.47,2.89-4.78.75-6.72ZM29.29,225c-1.65-6.18-5.3-11.07-5.9-17.71-1.18-12.92,6.77-29.73,16.03-38.53,2.06-1.95,11.62-7.62,12-8.24.73-1.19.65-4.97-.77-5.26-17.91,13.11-34.1,33.48-29.4,57.17.81,4.1,3.05,12.43,8.04,12.58ZM215.26,156.01c-.91-.87-14.29,5.53-16.25,6.62-3.19,1.78-7.13,4.12-8.5,7.62,1.3,1.01,14.18-7.39,16.48-8.63,1.45-.78,10.4-3.55,8.26-5.61ZM119.28,177.38c-.72-3.3.53-8.78,0-12.38l9.3,18.82c1.69,1.43,3.89.55,4.99-1.15,2.9-4.48-3.01-4.43-5.47-6.4-3.91-3.14-7.21-13.85-8.83-18.77-1.72-.42-1.23.33-1.71.95-1.69,2.17-3.62,7.15-5.44,8.77s-6.11,1.09-6.38,4.2c-.25,2.83,4.62,6.21,6.8,3.73,1.39-1.58.36-11.18,5.23-13.14-.15,3.09.25,6.29,0,9.36-.33,4.02-5.42,16.84,2.48,14.51,5.37-3.14-.47-6.25-.97-8.5ZM212.26,174c-2.02-3.95-9.33-3.94-12.74-1.86l12.74,1.86ZM258.75,195c1.51-3.01-6.88-6.71-6.73-4.12.7.98,6.03,4.85,6.73,4.12ZM40.54,228.75c15.03-1.53,17.65-26.75,7.52-34.89-7.95-6.4-25.18-.06-19.1,9.36,2.26,3.5,8.8,3.22,8.63-1.71-6.43-4.2-1.35-8.75,5.07-6.75,8.64,2.7,8.75,20.55,4.77,27.03-1.84,3-5.17,3.94-6.9,6.96ZM61.53,194.26c-2.76-.32-5.48.69-7.46,2.61l1.83,2.54c2.77-1.94,6.51-.54,5.63-5.15ZM113.27,209.25c-3.5-18.39-46.2-18.24-39.4,3.79.44,1.41,3.07,4.27,4.56,4.5s3.35-5.42,5.25-6.02c15.13-11.31,32.53,2.76,32.61,19.48,2.22.61,1.63-1.86,1.49-3.36-1.95-20.26-20.38-33.55-38.98-21.39,3.2-7.71,14.76-8.14,21.76-6.4,6.18,1.54,9.26,4.23,12.72,9.4ZM106.52,252c-6,3.19-10.18,8.33-16.26,11.85-21.26,12.34-46.48,9.26-52.95-17.25-2.34-9.58-1.53-24.67,4.1-33.1,1.55-2.33,5.94-4.7,5.08-7.56-.22-.72-1.46-1.74-2.22-.83-13.39,11.98-16.26,39.52-7.05,54.33,15.39,24.74,51.82,12.9,68.07-4.55.91-.98,1.62-1.07,1.23-2.89ZM229.51,253.5c15.58-3.84,29.04-12.08,35.07-27.55,2.44-6.26,5.23-14.64.55-20.44.71,7.89-6.36,7.04-10.09,10.15-5.72,4.76,6.49,8.5,2.79,14.41-5.5,3.08-11.9.84-17.83,2.05-3.48,4.2-1.09,10.54-3.16,14.84-1.69,3.52-5.65,3.26-7.33,6.54ZM157.53,233.25c5.73-3.46,3.56-11.41-1.73-14.41-9.83-5.57-31.08-.81-35.02,11.04,2.65.21,4.68-3.6,6.81-5.19,11.39-8.52,32.14-10.59,29.94,8.56ZM257.25,245.25c-12.7,13.1,3.93,32.11,19.54,23.66,4.95-2.68,9.36-11.14,6.73-16.56-16.04-6.81-4.75,16.36-17.63,15.44-9.71-.7-10.32-15.37-8.64-22.55ZM153.02,251.26c-4.36-1.12-4.41,2.28-6.77,4.85-4.33,4.7-14.77,11.1-21.25,10.65-3.39-.24-5.6-4.36-3.09-5,2.28-.58,5.05,5.49,7.11-.35-6-6.24-18.24,2.83-10.13,8.62,9.75,6.96,31.9-7.79,34.13-18.76Z"/><path d="M65.28,11.26l-18.9,6.21c-9.64,4.61-17,11.82-22.96,20.54l-8.37,17.49c.89-8-3.47-38.19,2.26-43.11,1.37-1.18,5.21-1.76,7.08-1.92l40.89.78Z"/><path d="M287.25,172.88c-.03.36-.78,4.16-1.49,4.12-.84-5.86-9.14-20.58-14.28-22.85-1.75-.77-7.42-.17-7.49-3.01,7.52-.42,14.19-1.83,18.63-8.38l4.62-10c-.92,12.89,1.24,27.44,0,40.12Z"/><path d="M73.53,89.26c-.12,4.87.17,9.78.03,14.65-.8,28.45-1.05,56.97-2.29,85.46l-1.48,7.13c.04-9.37-.09-18.77.03-28.15.13-10.62,1.21-21.46,1.49-32.19.41-15.17-1.17-30.75.72-45.79.13-1.02.53-2.38,1.49-1.12Z"/><path d="M221.27,181.5c-1.09-1.31,2.72-17.54,2.98-20.63,1.72-20.65-2.44-41.93-10.52-60.71-1.33-3.08.73-3.67,2.68-.42,6.87,11.42,11.5,46.41,10.11,59.65-.3,2.89-1.81,5.98-2.16,9.09-.45,3.94,1.51,11.63-3.09,13.03Z"/><path d="M228.75,111.01c1.54,5.62,3.49,11.27,4.3,17.08,1.81,12.91.59,33.03-.5,46.33-.11,1.31.15,2.47-1.18,3.33-1.82.36-1.06-1.45-1.11-2.61-.65-13.76,1.75-29.25.74-43.5-.43-6.07-3.48-13.7-3.75-18.76-.08-1.55-.41-2.17,1.5-1.87Z"/><path d="M79.52,187.5c-1.26,0-1.42-2.49-1.49-3.37-.82-10.22.26-21.84.04-32.29-.29-13.84-1.8-27.16-.82-41.26.09-1.28-.08-2.48,1.17-3.33l1.11,80.24Z"/><path d="M86.28,184.5c-1.46-.74-2.1-4.16-2.24-5.62-.52-5.31.87-11.56.78-17.29-.02-1.59-.75-3.07-.77-4.48-.15-10.63-.81-22.5,0-32.98.25-3.27.86-8.14,2.62-10.87l-.38,71.23Z"/><path d="M238.51,168v-32.25c3.42,3.83,2.23,11.12,2.28,16.16.02,1.75-.79,3.36-.81,5.18-.04,2.85,3.06,10.3-1.47,10.91Z"/></svg>